<svg xmlns="http://www.w3.org/2000/svg" viewBox="0 0 200 60" fill="none">
  <path d="M28 12c-8 0-14 6-14 14s6 14 14 14 14-6 14-14-6-14-14-14zm0 24c-5.5 0-10-4.5-10-10s4.5-10 10-10 10 4.5 10 10-4.5 10-10 10z" fill="#c4891a"/>
  <path d="M52 18v20h-4V18h4zm-2-6c-1.2 0-2 .8-2 2s.8 2 2 2 2-.8 2-2-.8-2-2-2z" fill="#1a1410"/>
  <path d="M62 18v-6h4v6h6v4h-6v10c0 2 1 3 3 3h3v4h-3c-4 0-7-2-7-6V22h-4v-4h4z" fill="#1a1410"/>
  <path d="M82 38c-4.5 0-8-3-8-8s3.5-8 8-8c3.5 0 6 2 7 4l-3 2c-.7-1.2-2-2-4-2-2.8 0-5 2.2-5 5.5s2.2 5.5 5 5.5c2 0 3.3-.8 4-2l3 2c-1 2-3.5 4-7 4z" fill="#1a1410"/>
  <path d="M98 22h4l4 10 4-10h4l-6 14v4h-4v-4l-6-14z" fill="#1a1410"/>
  <text x="130" y="34" font-family="serif" font-size="28" font-weight="700" fill="#1a1410" font-style="italic">Leish!</text>
</svg>
